<?xml version="1.0" encoding="UTF-8"?>
<svg data-bbox="0 -0.001 1012.183 927.356" viewBox="0 0 1012.18 927.36" height="927.36" width="1012.18" xmlns="http://www.w3.org/2000/svg" data-type="color">
    <g>
        <path d="M267.93 602.66c37.14-61.28 74.66-123.19 112.99-186.41-52.39-42.31-86.21-94.86-92.56-162.5-5.4-57.49 7.51-110.54 41.46-157.55C395.96 4.64 517.17-25.79 617.91 23.3c101.66 49.54 150.7 159.96 119.64 274.06-13.29-3.96-26.57-7.91-41.69-12.42 13.64-58.4 7.27-112.77-27.81-161.63-25.86-36.03-60.26-60.43-103.19-71.67-89.44-23.42-180.95 21.17-218.13 105.9-31.17 71.05-19.78 182.28 95.82 245.58-45.16 74.36-90.3 148.68-135.23 222.65 30.11 43.53 38.77 92.39-5.04 134.57-30.89 29.74-77.57 33.06-113.45 9.28-34.91-23.13-49.59-69.1-34.7-108.66 16.83-44.71 55.88-65.1 113.8-58.31" fill="#010101" data-color="1"/>
        <path d="M581.6 295.95c34.88 62.6 70.12 125.83 106.11 190.41 62.68-24.6 125.08-28 187.01-.06 52.63 23.75 92.35 61.21 116.41 113.98 46.86 102.78 13.34 223.17-79.15 286.44-93.35 63.84-213.57 51.83-297.36-31.6 10.02-9.59 20.02-19.18 31.42-30.09 44.01 40.74 94.42 62.11 154.23 55.79 44.1-4.66 82.33-22.48 113.33-54.23 64.6-66.15 71.12-167.73 15.87-241.96-46.33-62.24-148.63-107.37-260.83-38.21-42.28-76.03-84.54-152.03-126.6-227.67-52.73 4.63-99.47-12.01-114.46-70.95-10.57-41.56 9.64-83.76 48.05-103.19 37.37-18.9 84.58-8.92 111.6 23.6 30.53 36.74 28.93 80.77-5.62 127.74" fill="#010101" data-color="1"/>
        <path d="M677.9 713.61c-71.66.04-144.05.09-217.97.13-8.99 66.74-36.36 122.91-90.89 163.44-46.34 34.44-98.39 50.93-156.2 46.3-112.6-9.03-201.5-96.87-211.81-208.45C-9.36 602.41 59.59 503.2 173.24 470.56c3.51 13.42 7.02 26.82 11.02 42.09-57 18.64-100.18 52.3-123.74 107.64-17.37 40.81-20.39 82.87-7.72 125.4C79.19 834.3 164.79 889.4 256.51 877.21 333.42 867 422.6 799.54 416.73 667.87c87 .03 173.95.06 260.5.08 21.59-48.33 58.87-81.08 117.65-65.52 41.46 10.98 68.51 49.16 66.8 92.17-1.66 41.84-33.34 78.24-74.89 86.04-46.96 8.81-84.65-13.99-108.89-67.03" fill="#010101" data-color="1"/>
    </g>
</svg>
